<svg xmlns="http://www.w3.org/2000/svg" version="1.1" xmlns:xlink="http://www.w3.org/1999/xlink" xmlns:svgjs="http://svgjs.dev/svgjs" width="1500" height="1500" viewBox="0 0 1500 1500"><rect width="1500" height="1500" fill="#000000"></rect><g transform="matrix(0.6666666666666666,0,0,0.6666666666666666,249.39393939393938,435.99032258064517)"><svg viewBox="0 0 396 248" data-background-color="#ffffff" preserveAspectRatio="xMidYMid meet" height="939" width="1500" xmlns="http://www.w3.org/2000/svg" xmlns:xlink="http://www.w3.org/1999/xlink"><g id="tight-bounds" transform="matrix(1,0,0,1,0.2400000000000091,0.4000000000000057)"><svg viewBox="0 0 395.52 247.2" height="247.2" width="395.52"><g><svg></svg></g><g><svg viewBox="0 0 395.52 247.2" height="247.2" width="395.52"><g transform="matrix(1,0,0,1,75.54432000000001,107.63899701492537)"><svg viewBox="0 0 244.43135999999996 31.92200597014925" height="31.92200597014925" width="244.43135999999996"><g><svg viewBox="0 0 244.43135999999996 31.92200597014925" height="31.92200597014925" width="244.43135999999996"><g><svg viewBox="0 0 244.43135999999996 31.92200597014925" height="31.92200597014925" width="244.43135999999996"><g id="textblocktransform"><svg viewBox="0 0 244.43135999999996 31.92200597014925" height="31.92200597014925" width="244.43135999999996" id="textblock"><g><svg viewBox="0 0 244.43135999999996 31.92200597014925" height="31.92200597014925" width="244.43135999999996"><g transform="matrix(1,0,0,1,0,0)"><svg width="244.43135999999996" viewBox="1.7999999999999998 -28 214.38 28" height="31.92200597014925" data-palette-color="#000000"><path d="M18-12Q18.2-11.2 18.2-10L18.2-10Q18.2-8.85 18-8L18-8Q18.2-7.2 18.2-6L18.2-6Q18.2-4.85 18-4L18-4 16-4Q16.2-3.2 16.2-2L16.2-2Q16.2-0.85 16 0L16 0 4 0Q3.8-0.85 3.8-2L3.8-2Q3.8-3.2 4-4L4-4 2-4Q1.8-4.85 1.8-6L1.8-6Q1.8-7.2 2-8L2-8 6-8Q6.2-7.2 6.2-6L6.2-6Q6.2-4.85 6-4L6-4 14-4Q13.8-4.85 13.8-6L13.8-6Q13.8-7.2 14-8L14-8Q13.8-8.85 13.8-10L13.8-10Q13.8-11.2 14-12L14-12 4-12Q3.8-12.85 3.8-14L3.8-14Q3.8-15.2 4-16L4-16 2-16Q1.8-16.85 1.8-18L1.8-18Q1.8-19.2 2-20L2-20Q1.8-20.85 1.8-22L1.8-22Q1.8-23.2 2-24L2-24 4-24Q3.8-24.85 3.8-26L3.8-26Q3.8-27.2 4-28L4-28 16-28Q16.2-27.2 16.2-26L16.2-26Q16.2-24.85 16-24L16-24 18-24Q18.2-23.2 18.2-22L18.2-22Q18.2-20.85 18-20L18-20 14-20Q13.8-20.85 13.8-22L13.8-22Q13.8-23.2 14-24L14-24 6-24Q6.2-23.2 6.2-22L6.2-22Q6.2-20.85 6-20L6-20Q6.2-19.2 6.2-18L6.2-18Q6.2-16.85 6-16L6-16 16-16Q16.2-15.2 16.2-14L16.2-14Q16.2-12.85 16-12L16-12 18-12ZM38.2-6Q38.2-4.85 38-4L38-4Q38.2-3.2 38.2-2L38.2-2Q38.2-0.85 38 0L38 0 34 0Q33.8-0.85 33.8-2L33.8-2Q33.8-3.2 34-4L34-4Q33.8-4.85 33.8-6L33.8-6Q33.8-7.2 34-8L34-8 26-8Q26.2-7.2 26.2-6L26.2-6Q26.2-4.85 26-4L26-4Q26.2-3.2 26.2-2L26.2-2Q26.2-0.85 26 0L26 0 22 0Q21.8-0.85 21.8-2L21.8-2Q21.8-3.2 22-4L22-4Q21.8-4.85 21.8-6L21.8-6Q21.8-7.2 22-8L22-8 23.5-8Q23.3-8.85 23.3-10L23.3-10Q23.3-11.2 23.5-12L23.5-12Q23.3-12.85 23.3-14L23.3-14Q23.3-15.2 23.5-16L23.5-16 24.5-16Q24.3-16.85 24.3-18L24.3-18Q24.3-19.2 24.5-20L24.5-20 26-20Q25.8-20.85 25.8-22L25.8-22Q25.8-23.2 26-24L26-24 27-24Q26.8-24.85 26.8-26L26.8-26Q26.8-27.2 27-28L27-28 33-28Q33.2-27.2 33.2-26L33.2-26Q33.2-24.85 33-24L33-24 34-24Q34.2-23.2 34.2-22L34.2-22Q34.2-20.85 34-20L34-20 35.5-20Q35.7-19.2 35.7-18L35.7-18Q35.7-16.85 35.5-16L35.5-16 36.5-16Q36.7-15.2 36.7-14L36.7-14Q36.7-12.85 36.5-12L36.5-12Q36.7-11.2 36.7-10L36.7-10Q36.7-8.85 36.5-8L36.5-8 38-8Q38.2-7.2 38.2-6L38.2-6ZM32.5-12Q32.3-12.85 32.3-14L32.3-14Q32.3-15.2 32.5-16L32.5-16 31.5-16Q31.3-16.85 31.3-18L31.3-18Q31.3-19.2 31.5-20L31.5-20 28.5-20Q28.7-19.2 28.7-18L28.7-18Q28.7-16.85 28.5-16L28.5-16 27.5-16Q27.7-15.2 27.7-14L27.7-14Q27.7-12.85 27.5-12L27.5-12 32.5-12ZM56-16Q56.2-15.2 56.2-14L56.2-14Q56.2-12.85 56-12L56-12 48-12Q48.2-11.2 48.2-10L48.2-10Q48.2-8.85 48-8L48-8Q48.2-7.2 48.2-6L48.2-6Q48.2-4.85 48-4L48-4Q48.2-3.2 48.2-2L48.2-2Q48.2-0.85 48 0L48 0 44 0Q43.8-0.85 43.8-2L43.8-2Q43.8-3.2 44-4L44-4Q43.8-4.85 43.8-6L43.8-6Q43.8-7.2 44-8L44-8Q43.8-8.85 43.8-10L43.8-10Q43.8-11.2 44-12L44-12Q43.8-12.85 43.8-14L43.8-14Q43.8-15.2 44-16L44-16Q43.8-16.85 43.8-18L43.8-18Q43.8-19.2 44-20L44-20Q43.8-20.85 43.8-22L43.8-22Q43.8-23.2 44-24L44-24Q43.8-24.85 43.8-26L43.8-26Q43.8-27.2 44-28L44-28 56-28Q56.2-27.2 56.2-26L56.2-26Q56.2-24.85 56-24L56-24 48-24Q48.2-23.2 48.2-22L48.2-22Q48.2-20.85 48-20L48-20Q48.2-19.2 48.2-18L48.2-18Q48.2-16.85 48-16L48-16 56-16ZM75.99-12L67.99-12Q68.19-11.2 68.19-10L68.19-10Q68.19-8.85 67.99-8L67.99-8Q68.19-7.2 68.19-6L68.19-6Q68.19-4.85 67.99-4L67.99-4 75.99-4Q76.19-3.2 76.19-2L76.19-2Q76.19-0.85 75.99 0L75.99 0 63.99 0Q63.79-0.85 63.79-2L63.79-2Q63.79-3.2 63.99-4L63.99-4Q63.79-4.85 63.79-6L63.79-6Q63.79-7.2 63.99-8L63.99-8Q63.79-8.85 63.79-10L63.79-10Q63.79-11.2 63.99-12L63.99-12Q63.79-12.85 63.79-14L63.79-14Q63.79-15.2 63.99-16L63.99-16Q63.79-16.85 63.79-18L63.79-18Q63.79-19.2 63.99-20L63.99-20Q63.79-20.85 63.79-22L63.79-22Q63.79-23.2 63.99-24L63.99-24Q63.79-24.85 63.79-26L63.79-26Q63.79-27.2 63.99-28L63.99-28 75.99-28Q76.19-27.2 76.19-26L76.19-26Q76.19-24.85 75.99-24L75.99-24 67.99-24Q68.19-23.2 68.19-22L68.19-22Q68.19-20.85 67.99-20L67.99-20Q68.19-19.2 68.19-18L68.19-18Q68.19-16.85 67.99-16L67.99-16 75.99-16Q76.19-15.2 76.19-14L76.19-14Q76.19-12.85 75.99-12L75.99-12ZM97.99-12Q98.19-11.2 98.19-10L98.19-10Q98.19-8.85 97.99-8L97.99-8Q98.19-7.2 98.19-6L98.19-6Q98.19-4.85 97.99-4L97.99-4 95.99-4Q96.19-3.2 96.19-2L96.19-2Q96.19-0.85 95.99 0L95.99 0 83.99 0Q83.79-0.85 83.79-2L83.79-2Q83.79-3.2 83.99-4L83.99-4 81.99-4Q81.79-4.85 81.79-6L81.79-6Q81.79-7.2 81.99-8L81.99-8 85.99-8Q86.19-7.2 86.19-6L86.19-6Q86.19-4.85 85.99-4L85.99-4 93.99-4Q93.79-4.85 93.79-6L93.79-6Q93.79-7.2 93.99-8L93.99-8Q93.79-8.85 93.79-10L93.79-10Q93.79-11.2 93.99-12L93.99-12 83.99-12Q83.79-12.85 83.79-14L83.79-14Q83.79-15.2 83.99-16L83.99-16 81.99-16Q81.79-16.85 81.79-18L81.79-18Q81.79-19.2 81.99-20L81.99-20Q81.79-20.85 81.79-22L81.79-22Q81.79-23.2 81.99-24L81.99-24 83.99-24Q83.79-24.85 83.79-26L83.79-26Q83.79-27.2 83.99-28L83.99-28 95.99-28Q96.19-27.2 96.19-26L96.19-26Q96.19-24.85 95.99-24L95.99-24 97.99-24Q98.19-23.2 98.19-22L98.19-22Q98.19-20.85 97.99-20L97.99-20 93.99-20Q93.79-20.85 93.79-22L93.79-22Q93.79-23.2 93.99-24L93.99-24 85.99-24Q86.19-23.2 86.19-22L86.19-22Q86.19-20.85 85.99-20L85.99-20Q86.19-19.2 86.19-18L86.19-18Q86.19-16.85 85.99-16L85.99-16 95.99-16Q96.19-15.2 96.19-14L96.19-14Q96.19-12.85 95.99-12L95.99-12 97.99-12ZM118.19-26Q118.19-24.85 117.99-24L117.99-24 111.99-24Q112.19-23.2 112.19-22L112.19-22Q112.19-20.85 111.99-20L111.99-20Q112.19-19.2 112.19-18L112.19-18Q112.19-16.85 111.99-16L111.99-16Q112.19-15.2 112.19-14L112.19-14Q112.19-12.85 111.99-12L111.99-12Q112.19-11.2 112.19-10L112.19-10Q112.19-8.85 111.99-8L111.99-8Q112.19-7.2 112.19-6L112.19-6Q112.19-4.85 111.99-4L111.99-4Q112.19-3.2 112.19-2L112.19-2Q112.19-0.85 111.99 0L111.99 0 107.99 0Q107.79-0.85 107.79-2L107.79-2Q107.79-3.2 107.99-4L107.99-4Q107.79-4.85 107.79-6L107.79-6Q107.79-7.2 107.99-8L107.99-8Q107.79-8.85 107.79-10L107.79-10Q107.79-11.2 107.99-12L107.99-12Q107.79-12.85 107.79-14L107.79-14Q107.79-15.2 107.99-16L107.99-16Q107.79-16.85 107.79-18L107.79-18Q107.79-19.2 107.99-20L107.99-20Q107.79-20.85 107.79-22L107.79-22Q107.79-23.2 107.99-24L107.99-24 101.99-24Q101.79-24.85 101.79-26L101.79-26Q101.79-27.2 101.99-28L101.99-28 117.99-28Q118.19-27.2 118.19-26L118.19-26ZM137.99-16Q138.19-15.2 138.19-14L138.19-14Q138.19-12.85 137.99-12L137.99-12Q138.19-11.2 138.19-10L138.19-10Q138.19-8.85 137.99-8L137.99-8 136.49-8Q136.69-7.2 136.69-6L136.69-6Q136.69-4.85 136.49-4L136.49-4 133.99-4Q134.19-3.2 134.19-2L134.19-2Q134.19-0.85 133.99 0L133.99 0 125.99 0Q125.79-0.85 125.79-2L125.79-2Q125.79-3.2 125.99-4L125.99-4 123.49-4Q123.29-4.85 123.29-6L123.29-6Q123.29-7.2 123.49-8L123.49-8 121.99-8Q121.79-8.85 121.79-10L121.79-10Q121.79-11.2 121.99-12L121.99-12Q121.79-12.85 121.79-14L121.79-14Q121.79-15.2 121.99-16L121.99-16Q121.79-16.85 121.79-18L121.79-18Q121.79-19.2 121.99-20L121.99-20 123.49-20Q123.29-20.85 123.29-22L123.29-22Q123.29-23.2 123.49-24L123.49-24 125.99-24Q125.79-24.85 125.79-26L125.79-26Q125.79-27.2 125.99-28L125.99-28 133.99-28Q134.19-27.2 134.19-26L134.19-26Q134.19-24.85 133.99-24L133.99-24 136.49-24Q136.69-23.2 136.69-22L136.69-22Q136.69-20.85 136.49-20L136.49-20 137.99-20Q138.19-19.2 138.19-18L138.19-18Q138.19-16.85 137.99-16L137.99-16ZM133.99-8Q133.79-8.85 133.79-10L133.79-10Q133.79-11.2 133.99-12L133.99-12Q133.79-12.85 133.79-14L133.79-14Q133.79-15.2 133.99-16L133.99-16Q133.79-16.85 133.79-18L133.79-18Q133.79-19.2 133.99-20L133.99-20 132.49-20Q132.29-20.85 132.29-22L132.29-22Q132.29-23.2 132.49-24L132.49-24 127.49-24Q127.69-23.2 127.69-22L127.69-22Q127.69-20.85 127.49-20L127.49-20 125.99-20Q126.19-19.2 126.19-18L126.19-18Q126.19-16.85 125.99-16L125.99-16Q126.19-15.2 126.19-14L126.19-14Q126.19-12.85 125.99-12L125.99-12Q126.19-11.2 126.19-10L126.19-10Q126.19-8.85 125.99-8L125.99-8 127.49-8Q127.69-7.2 127.69-6L127.69-6Q127.69-4.85 127.49-4L127.49-4 132.49-4Q132.29-4.85 132.29-6L132.29-6Q132.29-7.2 132.49-8L132.49-8 133.99-8ZM156.48-4L157.98-4Q158.18-3.2 158.18-2L158.18-2Q158.18-0.85 157.98 0L157.98 0 153.98 0Q153.78-0.85 153.78-2L153.78-2Q153.78-3.2 153.98-4L153.98-4 152.48-4Q152.28-4.85 152.28-6L152.28-6Q152.28-7.2 152.48-8L152.48-8 150.98-8Q150.78-8.85 150.78-10L150.78-10Q150.78-11.2 150.98-12L150.98-12 145.98-12Q146.18-11.2 146.18-10L146.18-10Q146.18-8.85 145.98-8L145.98-8Q146.18-7.2 146.18-6L146.18-6Q146.18-4.85 145.98-4L145.98-4Q146.18-3.2 146.18-2L146.18-2Q146.18-0.85 145.98 0L145.98 0 141.98 0Q141.78-0.85 141.78-2L141.78-2Q141.78-3.2 141.98-4L141.98-4Q141.78-4.85 141.78-6L141.78-6Q141.78-7.2 141.98-8L141.98-8Q141.78-8.85 141.78-10L141.78-10Q141.78-11.2 141.98-12L141.98-12Q141.78-12.85 141.78-14L141.78-14Q141.78-15.2 141.98-16L141.98-16Q141.78-16.85 141.78-18L141.78-18Q141.78-19.2 141.98-20L141.98-20Q141.78-20.85 141.78-22L141.78-22Q141.78-23.2 141.98-24L141.98-24Q141.78-24.85 141.78-26L141.78-26Q141.78-27.2 141.98-28L141.98-28 155.98-28Q156.18-27.2 156.18-26L156.18-26Q156.18-24.85 155.98-24L155.98-24 157.98-24Q158.18-23.2 158.18-22L158.18-22Q158.18-20.85 157.98-20L157.98-20 156.98-20Q157.18-19.2 157.18-18L157.18-18Q157.18-16.85 156.98-16L156.98-16 153.98-16Q154.18-15.2 154.18-14L154.18-14Q154.18-12.85 153.98-12L153.98-12 154.98-12Q155.18-11.2 155.18-10L155.18-10Q155.18-8.85 154.98-8L154.98-8 156.48-8Q156.68-7.2 156.68-6L156.68-6Q156.68-4.85 156.48-4L156.48-4ZM152.98-16Q152.78-16.85 152.78-18L152.78-18Q152.78-19.2 152.98-20L152.98-20Q152.78-20.85 152.78-22L152.78-22Q152.78-23.2 152.98-24L152.98-24 145.98-24Q146.18-23.2 146.18-22L146.18-22Q146.18-20.85 145.98-20L145.98-20Q146.18-19.2 146.18-18L146.18-18Q146.18-16.85 145.98-16L145.98-16 152.98-16ZM178.18-6Q178.18-4.85 177.98-4L177.98-4Q178.18-3.2 178.18-2L178.18-2Q178.18-0.85 177.98 0L177.98 0 173.98 0Q173.78-0.85 173.78-2L173.78-2Q173.78-3.2 173.98-4L173.98-4Q173.78-4.85 173.78-6L173.78-6Q173.78-7.2 173.98-8L173.98-8 165.98-8Q166.18-7.2 166.18-6L166.18-6Q166.18-4.85 165.98-4L165.98-4Q166.18-3.2 166.18-2L166.18-2Q166.18-0.85 165.98 0L165.98 0 161.98 0Q161.78-0.85 161.78-2L161.78-2Q161.78-3.2 161.98-4L161.98-4Q161.78-4.85 161.78-6L161.78-6Q161.78-7.2 161.98-8L161.98-8 163.48-8Q163.28-8.85 163.28-10L163.28-10Q163.28-11.2 163.48-12L163.48-12Q163.28-12.85 163.28-14L163.28-14Q163.28-15.2 163.48-16L163.48-16 164.48-16Q164.28-16.85 164.28-18L164.28-18Q164.28-19.2 164.48-20L164.48-20 165.98-20Q165.78-20.85 165.78-22L165.78-22Q165.78-23.2 165.98-24L165.98-24 166.98-24Q166.78-24.85 166.78-26L166.78-26Q166.78-27.2 166.98-28L166.98-28 172.98-28Q173.18-27.2 173.18-26L173.18-26Q173.18-24.85 172.98-24L172.98-24 173.98-24Q174.18-23.2 174.18-22L174.18-22Q174.18-20.85 173.98-20L173.98-20 175.48-20Q175.68-19.2 175.68-18L175.68-18Q175.68-16.85 175.48-16L175.48-16 176.48-16Q176.68-15.2 176.68-14L176.68-14Q176.68-12.85 176.48-12L176.48-12Q176.68-11.2 176.68-10L176.68-10Q176.68-8.85 176.48-8L176.48-8 177.98-8Q178.18-7.2 178.18-6L178.18-6ZM172.48-12Q172.28-12.85 172.28-14L172.28-14Q172.28-15.2 172.48-16L172.48-16 171.48-16Q171.28-16.85 171.28-18L171.28-18Q171.28-19.2 171.48-20L171.48-20 168.48-20Q168.68-19.2 168.68-18L168.68-18Q168.68-16.85 168.48-16L168.48-16 167.48-16Q167.68-15.2 167.68-14L167.68-14Q167.68-12.85 167.48-12L167.48-12 172.48-12ZM197.98-16Q198.18-15.2 198.18-14L198.18-14Q198.18-12.85 197.98-12L197.98-12Q198.18-11.2 198.18-10L198.18-10Q198.18-8.85 197.98-8L197.98-8Q198.18-7.2 198.18-6L198.18-6Q198.18-4.85 197.98-4L197.98-4 195.98-4Q196.18-3.2 196.18-2L196.18-2Q196.18-0.85 195.98 0L195.98 0 185.98 0Q185.78-0.85 185.78-2L185.78-2Q185.78-3.2 185.98-4L185.98-4 183.98-4Q183.78-4.85 183.78-6L183.78-6Q183.78-7.2 183.98-8L183.98-8 181.98-8Q181.78-8.85 181.78-10L181.78-10Q181.78-11.2 181.98-12L181.98-12Q181.78-12.85 181.78-14L181.78-14Q181.78-15.2 181.98-16L181.98-16Q181.78-16.85 181.78-18L181.78-18Q181.78-19.2 181.98-20L181.98-20 183.98-20Q183.78-20.85 183.78-22L183.78-22Q183.78-23.2 183.98-24L183.98-24 185.98-24Q185.78-24.85 185.78-26L185.78-26Q185.78-27.2 185.98-28L185.98-28 195.98-28Q196.18-27.2 196.18-26L196.18-26Q196.18-24.85 195.98-24L195.98-24 197.98-24Q198.18-23.2 198.18-22L198.18-22Q198.18-20.85 197.98-20L197.98-20 193.98-20Q193.78-20.85 193.78-22L193.78-22Q193.78-23.2 193.98-24L193.98-24 187.98-24Q188.18-23.2 188.18-22L188.18-22Q188.18-20.85 187.98-20L187.98-20 185.98-20Q186.18-19.2 186.18-18L186.18-18Q186.18-16.85 185.98-16L185.98-16Q186.18-15.2 186.18-14L186.18-14Q186.18-12.85 185.98-12L185.98-12Q186.18-11.2 186.18-10L186.18-10Q186.18-8.85 185.98-8L185.98-8 187.98-8Q188.18-7.2 188.18-6L188.18-6Q188.18-4.85 187.98-4L187.98-4 193.98-4Q193.78-4.85 193.78-6L193.78-6Q193.78-7.2 193.98-8L193.98-8Q193.78-8.85 193.78-10L193.78-10Q193.78-11.2 193.98-12L193.98-12 190.98-12Q190.78-12.85 190.78-14L190.78-14Q190.78-15.2 190.98-16L190.98-16 197.98-16ZM215.98-12L207.98-12Q208.18-11.2 208.18-10L208.18-10Q208.18-8.85 207.98-8L207.98-8Q208.18-7.2 208.18-6L208.18-6Q208.18-4.85 207.98-4L207.98-4 215.98-4Q216.18-3.2 216.18-2L216.18-2Q216.18-0.85 215.98 0L215.98 0 203.98 0Q203.78-0.85 203.78-2L203.78-2Q203.78-3.2 203.98-4L203.98-4Q203.78-4.85 203.78-6L203.78-6Q203.78-7.2 203.98-8L203.98-8Q203.78-8.85 203.78-10L203.78-10Q203.78-11.2 203.98-12L203.98-12Q203.78-12.85 203.78-14L203.78-14Q203.78-15.2 203.98-16L203.98-16Q203.78-16.85 203.78-18L203.78-18Q203.78-19.2 203.98-20L203.98-20Q203.78-20.85 203.78-22L203.78-22Q203.78-23.2 203.98-24L203.98-24Q203.78-24.85 203.78-26L203.78-26Q203.78-27.2 203.98-28L203.98-28 215.98-28Q216.18-27.2 216.18-26L216.18-26Q216.18-24.85 215.98-24L215.98-24 207.98-24Q208.18-23.2 208.18-22L208.18-22Q208.18-20.85 207.98-20L207.98-20Q208.18-19.2 208.18-18L208.18-18Q208.18-16.85 207.98-16L207.98-16 215.98-16Q216.18-15.2 216.18-14L216.18-14Q216.18-12.85 215.98-12L215.98-12Z" opacity="1" transform="matrix(1,0,0,1,0,0)" fill="#ffffff" class="wordmark-text-0" data-fill-palette-color="primary" id="text-0"></path></svg></g></svg></g></svg></g></svg></g></svg></g></svg></g><path d="M177.272 101.639L177.272 37.852 5.776 37.852 5.776 209.348 177.272 209.348 177.272 145.561 174.393 145.561 174.393 206.469 8.655 206.469 8.655 40.731 174.393 40.731 174.393 101.639Z" fill="#ffffff" stroke="transparent" data-fill-palette-color="tertiary"></path></svg></g><defs></defs></svg><rect width="395.52" height="247.2" fill="none" stroke="none" visibility="hidden"></rect></g></svg></g></svg>