<svg xmlns="http://www.w3.org/2000/svg" version="1.1" xmlns:xlink="http://www.w3.org/1999/xlink" xmlns:svgjs="http://svgjs.dev/svgjs" width="1500" height="1500" viewBox="0 0 1500 1500"><rect width="1500" height="1500" fill="#000000"></rect><g transform="matrix(0.6666666666666666,0,0,0.6666666666666666,249.5093563205628,275.47419354838706)"><svg viewBox="0 0 262 248" data-background-color="#010536" preserveAspectRatio="xMidYMid meet" height="1419" width="1500" xmlns="http://www.w3.org/2000/svg" xmlns:xlink="http://www.w3.org/1999/xlink"><g id="tight-bounds" transform="matrix(1,0,0,1,0.12854864401253963,0.4000000000000057)"><svg viewBox="0 0 261.7429027119749 247.2" height="247.2" width="261.7429027119749"><g><svg viewBox="0 0 397.4975999999999 375.4119240747018" height="247.2" width="261.7429027119749"><g><rect width="397.4975999999999" height="6.526949809642885" x="0" y="202.53788289665314" fill="#ffffff" opacity="1" stroke-width="0" stroke="transparent" fill-opacity="1" class="rect-yte-0" data-fill-palette-color="primary" rx="1%" id="yte-0" data-palette-color="#fbfbf8"></rect></g><g><rect width="397.4975999999999" height="6.526949809642885" x="0" y="217.6079607293888" fill="#ffffff" opacity="1" stroke-width="0" stroke="transparent" fill-opacity="1" class="rect-yte-1" data-fill-palette-color="primary" rx="1%" id="yte-1" data-palette-color="#fbfbf8"></rect></g><g transform="matrix(1,0,0,1,0.9887999999999693,241.22116658521722)"><svg viewBox="0 0 395.52 134.1907574894845" height="134.1907574894845" width="395.52"><g id="textblocktransform"><svg viewBox="0 0 395.52 134.1907574894845" height="134.1907574894845" width="395.52" id="textblock"><g><svg viewBox="0 0 395.52 72.37608247422679" height="72.37608247422679" width="395.52"><g transform="matrix(1,0,0,1,0,0)"><svg width="395.52" viewBox="2.54 -39.55 284.15 52" height="72.37608247422679" data-palette-color="#fbfbf8"><path d="M20.51-32.47L20.51-32.47Q19.24-34.18 15.08-34.18 10.91-34.18 9.33-31.4L9.33-31.4Q8.79-30.44 8.79-29.05L8.79-29.05Q8.79-26.49 11.08-24.37L11.08-24.37Q12.6-22.95 15.27-21.46 17.94-19.97 19.78-18.8L19.78-18.8Q26.68-14.4 26.68-9.18L26.68-9.18Q26.68-4.54 23.28-2.03 19.87 0.49 14.47 0.49 9.06 0.49 5.8-1.65 2.54-3.78 2.54-6.56 2.54-9.33 4.76-10.3L4.76-10.3Q5.44-10.62 6.25-10.62L6.25-10.62Q7.79-10.62 8.78-9.59 9.77-8.57 9.77-7.01 9.77-5.44 8.35-4.35L8.35-4.35Q10.25-2.44 14.66-2.44 19.07-2.44 20.7-5.42L20.7-5.42Q21.29-6.45 21.29-7.81L21.29-7.81Q21.29-10.18 18.85-12.21L18.85-12.21Q17.58-13.26 14.56-14.93 11.55-16.6 9.81-17.72L9.81-17.72Q3.44-21.83 3.44-27.39L3.44-27.39Q3.44-31.74 6.73-34.42 10.01-37.11 14.86-37.11 19.7-37.11 22.81-35.03 25.93-32.96 25.93-29.98L25.93-29.98Q25.93-28.37 24.94-27.28 23.95-26.2 22.44-26.2L22.44-26.2Q20.12-26.2 19.21-28.22L19.21-28.22Q18.95-28.83 18.95-29.52L18.95-29.52Q18.95-31.4 20.51-32.47ZM52.29-16.8L52.29-5.83Q52.29-2.93 53.44-2.93L53.44-2.93Q54.54-2.93 55.05-3.67 55.56-4.42 55.56-6.37L55.56-6.37 58.13-6.37Q58.15-6.05 58.15-5.37L58.15-5.37Q58.15-3.17 57.05-1.56L57.05-1.56Q55.71 0.49 52.78 0.49L52.78 0.49Q50.88 0.49 49.53-0.59 48.19-1.66 47.68-3.42L47.68-3.42Q44.14 0.49 38.72 0.49L38.72 0.49Q35.74 0.49 33.53-1.26 31.32-3 31.32-6.13L31.32-6.13Q31.32-11.55 39.33-14.14L39.33-14.14Q44.41-15.75 45.41-16.37 46.41-16.99 46.71-17.64 47.02-18.29 47.02-19.09L47.02-19.09Q47.02-20.53 45.6-21.5 44.19-22.46 41.92-22.46 39.65-22.46 37.91-21.24L37.91-21.24Q39.13-20.34 39.13-18.92 39.13-17.5 38.19-16.65 37.25-15.8 35.92-15.8 34.59-15.8 33.73-16.6 32.86-17.41 32.86-18.85L32.86-18.85Q32.86-21.7 35.74-23.47 38.62-25.24 42.75-25.24L42.75-25.24Q50.12-25.24 51.76-20.46L51.76-20.46Q52.29-18.87 52.29-16.8L52.29-16.8ZM41.53-11.91Q39.38-10.99 38.3-9.53 37.23-8.08 37.23-6.37 37.23-4.66 38.16-3.78 39.08-2.91 40.48-2.91L40.48-2.91Q43.31-2.91 45.16-4.9 47.02-6.88 47.02-10.45L47.02-10.45 47.02-14.21Q45.46-13.4 43.71-12.74 41.97-12.08 41.53-11.91L41.53-11.91ZM60.18 0L60.18-2.69Q62.3-2.69 62.84-3.11 63.37-3.54 63.48-4.03 63.59-4.52 63.59-5.25L63.59-5.25 63.59-20.26Q63.59-21.22 63.36-21.52 63.13-21.83 62.37-21.83L62.37-21.83 59.61-21.83 59.61-24.76 63.59-24.76 63.59-27.2Q63.59-32.89 66.32-36.22 69.04-39.55 73.58-39.55L73.58-39.55Q76.68-39.55 78.52-37.66 80.37-35.77 80.37-33.3 80.37-30.83 78.54-30L78.54-30Q77.92-29.74 77.27-29.74L77.27-29.74Q75.97-29.74 75.01-30.62 74.04-31.49 74.04-32.57L74.04-32.57Q74.04-34.62 75.85-35.23L75.85-35.23Q75.48-36.08 74.8-36.5 74.12-36.91 73.57-36.91 73.02-36.91 72.48-36.83 71.94-36.74 71.43-36.43L71.43-36.43Q68.92-34.94 68.92-27.54L68.92-27.54 68.92-24.76 76.29-24.76 76.29-21.83 68.92-21.83 68.92-5.47Q68.92-3.61 69.76-3.15 70.6-2.69 74.07-2.69L74.07-2.69 74.07 0 60.18 0ZM102.46-11.25L102.46-11.25 85.51-11.25Q85.51-7.06 87.5-4.76 89.49-2.47 92.42-2.47L92.42-2.47Q96.35-2.47 98.06-5.71L98.06-5.71 101.7-5.74Q101.14-3.13 98.49-1.32 95.84 0.49 91.35 0.49 86.86 0.49 83.59-2.29L83.59-2.29Q79.68-5.64 79.68-11.72 79.68-17.8 82.79-21.52 85.91-25.24 91.72-25.24L91.72-25.24Q99.36-25.24 101.6-19.09L101.6-19.09Q102.51-16.63 102.51-14.43 102.51-12.23 102.46-11.25ZM96.82-14.92L96.82-14.92Q96.82-22.39 91.74-22.39L91.74-22.39Q88.88-22.39 87.28-20.17 85.69-17.94 85.54-14.01L85.54-14.01 96.79-14.01Q96.82-14.48 96.82-14.92ZM125.23-32.47L125.23-32.47Q123.96-34.18 119.8-34.18 115.64-34.18 114.05-31.4L114.05-31.4Q113.52-30.44 113.52-29.05L113.52-29.05Q113.52-26.49 115.81-24.37L115.81-24.37Q117.32-22.95 120-21.46 122.67-19.97 124.5-18.8L124.5-18.8Q131.41-14.4 131.41-9.18L131.41-9.18Q131.41-4.54 128.01-2.03 124.6 0.49 119.19 0.49 113.78 0.49 110.52-1.65 107.27-3.78 107.27-6.56 107.27-9.33 109.49-10.3L109.49-10.3Q110.17-10.62 110.98-10.62L110.98-10.62Q112.51-10.62 113.5-9.59 114.49-8.57 114.49-7.01 114.49-5.44 113.08-4.35L113.08-4.35Q114.98-2.44 119.39-2.44 123.79-2.44 125.43-5.42L125.43-5.42Q126.02-6.45 126.02-7.81L126.02-7.81Q126.02-10.18 123.57-12.21L123.57-12.21Q122.3-13.26 119.29-14.93 116.27-16.6 114.54-17.72L114.54-17.72Q108.17-21.83 108.17-27.39L108.17-27.39Q108.17-31.74 111.45-34.42 114.74-37.11 119.58-37.11 124.43-37.11 127.54-35.03 130.65-32.96 130.65-29.98L130.65-29.98Q130.65-28.37 129.67-27.28 128.68-26.2 127.16-26.2L127.16-26.2Q124.84-26.2 123.94-28.22L123.94-28.22Q123.67-28.83 123.67-29.52L123.67-29.52Q123.67-31.4 125.23-32.47ZM145.89 0.49L145.89 0.49Q138.2 0.49 138.2-8.06L138.2-8.06 138.2-20.26Q138.2-21.22 137.96-21.52 137.73-21.83 136.97-21.83L136.97-21.83 134.97-21.83 134.97-24.76 135.88-24.76Q137.73-24.76 138.6-25.93 139.47-27.1 139.54-29.79L139.54-29.79 139.56-31.96 143.47-31.96 143.47-24.76 150.96-24.76 150.96-21.83 143.47-21.83 143.47-8.13Q143.47-3.59 145.57-2.71L145.57-2.71Q146.15-2.47 146.74-2.47L146.74-2.47Q149.3-2.47 150.09-6.69L150.09-6.69 152.92-6.69Q152.67-1.68 148.74-0.05L148.74-0.05Q147.47 0.49 145.89 0.49ZM156.33-12.5L156.33-12.5Q156.33-15.43 157.25-17.91 158.16-20.39 159.8-22.02L159.8-22.02Q163.02-25.24 168.37-25.24L168.37-25.24Q173.76-25.24 177.07-22.01 180.38-18.77 180.38-12.83 180.38-6.88 177.33-3.2 174.28 0.49 168.37 0.49L168.37 0.49Q162.46 0.49 159.4-3.09 156.33-6.67 156.33-12.5ZM168.37-2.44L168.37-2.44Q171.2-2.44 172.97-5.03 174.74-7.62 174.74-12.3L174.74-12.3Q174.74-19.85 170.93-21.73L170.93-21.73Q169.76-22.31 168.37-22.31L168.37-22.31Q163.85-22.31 162.49-16.85L162.49-16.85Q162-14.97 162-12.45L162-12.45Q162-7.62 163.77-5.03 165.54-2.44 168.37-2.44ZM184.58 0L184.58-2.69Q186.68-2.69 187.21-3.11 187.75-3.54 187.86-4.03 187.97-4.52 187.97-5.25L187.97-5.25 187.97-18.7Q187.97-20.46 187.67-21 187.36-21.53 186.02-21.53L186.02-21.53 184.53-21.53 184.53-24.22Q186.85-24.22 188.13-24.57 189.41-24.93 189.96-25.09 190.51-25.24 191.14-25.24L191.14-25.24Q192.39-25.24 192.82-24.51 193.24-23.78 193.24-22.12L193.24-22.12 193.24-21.63Q195.34-24.1 198-24.95L198-24.95Q198.96-25.24 199.91-25.24L199.91-25.24Q201.74-25.24 202.75-24.19 203.77-23.14 203.77-21.61 203.77-20.07 202.79-19.09 201.81-18.12 200.42-18.12L200.42-18.12Q199.05-18.12 198.16-19.09 197.27-20.07 197.37-21.53L197.37-21.53Q196.37-21.39 195.23-20.62 194.1-19.85 193.24-18.53L193.24-18.53 193.24-5.47Q193.24-4.54 193.4-3.99 193.56-3.44 194.26-3.06 194.95-2.69 198.44-2.69L198.44-2.69 198.44 0 184.58 0ZM227.79-16.8L227.79-5.83Q227.79-2.93 228.94-2.93L228.94-2.93Q230.03-2.93 230.55-3.67 231.06-4.42 231.06-6.37L231.06-6.37 233.62-6.37Q233.65-6.05 233.65-5.37L233.65-5.37Q233.65-3.17 232.55-1.56L232.55-1.56Q231.21 0.49 228.28 0.49L228.28 0.49Q226.37 0.49 225.03-0.59 223.69-1.66 223.17-3.42L223.17-3.42Q219.63 0.49 214.21 0.49L214.21 0.49Q211.23 0.49 209.03-1.26 206.82-3 206.82-6.13L206.82-6.13Q206.82-11.55 214.82-14.14L214.82-14.14Q219.9-15.75 220.9-16.37 221.9-16.99 222.21-17.64 222.51-18.29 222.51-19.09L222.51-19.09Q222.51-20.53 221.1-21.5 219.68-22.46 217.41-22.46 215.14-22.46 213.41-21.24L213.41-21.24Q214.63-20.34 214.63-18.92 214.63-17.5 213.69-16.65 212.75-15.8 211.42-15.8 210.09-15.8 209.22-16.6 208.35-17.41 208.35-18.85L208.35-18.85Q208.35-21.7 211.23-23.47 214.12-25.24 218.24-25.24L218.24-25.24Q225.61-25.24 227.25-20.46L227.25-20.46Q227.79-18.87 227.79-16.8L227.79-16.8ZM217.02-11.91Q214.87-10.99 213.8-9.53 212.72-8.08 212.72-6.37 212.72-4.66 213.65-3.78 214.58-2.91 215.97-2.91L215.97-2.91Q218.8-2.91 220.66-4.9 222.51-6.88 222.51-10.45L222.51-10.45 222.51-14.21Q220.95-13.4 219.21-12.74 217.46-12.08 217.02-11.91L217.02-11.91ZM253.25-23.34L253.25-23.34Q255.42-25.9 258.89-25.9L258.89-25.9Q260.06-25.9 260.95-25.04 261.84-24.17 261.84-22.89 261.84-21.61 261.07-20.86 260.3-20.12 259.23-20.12 258.16-20.12 257.41-20.73 256.67-21.34 256.59-22.61L256.59-22.61Q255.71-22.27 254.98-21.58L254.98-21.58Q256.45-19.46 256.45-16.78 256.45-14.11 255.63-12.44 254.81-10.77 253.41-9.58 252-8.4 250.15-7.76 248.29-7.13 246.82-7.13 245.34-7.13 244.58-7.2L244.58-7.2Q242.82-6.81 242.21-5.71L242.21-5.71Q242.04-5.44 242.04-5.1L242.04-5.1Q242.04-4.37 243.36-4.05 244.68-3.74 247.77-3.48 250.86-3.22 252.87-2.87 254.88-2.51 256.35-1.76L256.35-1.76Q259.45-0.12 259.45 3.81 259.45 7.74 255.62 10.1 251.78 12.45 246.24 12.45L246.24 12.45Q237.55 12.45 235.38 8.03L235.38 8.03Q234.72 6.69 234.72 5.08L234.72 5.08Q234.72 0.93 239.77-1.66L239.77-1.66Q238.04-2.69 238.04-4.83 238.04-6.98 240.75-8.2L240.75-8.2Q238.45-9.08 237.14-11.34 235.82-13.6 235.82-15.94L235.82-15.94Q235.82-20.34 238.98-22.79 242.14-25.24 246.41-25.24 250.69-25.24 253.25-23.34ZM246.24-9.94L246.24-9.94Q249.46-9.94 250.71-13.35L250.71-13.35Q251.15-14.53 251.15-16.26L251.15-16.26Q251.15-19.48 249.73-21.02 248.32-22.56 246.24-22.56L246.24-22.56Q242.85-22.56 241.58-19.12L241.58-19.12Q241.14-17.87 241.14-16.16L241.14-16.16Q241.14-13.04 242.67-11.49 244.19-9.94 246.24-9.94ZM242.38-0.12L242.38-0.12Q239.97 1.17 239.97 4.27L239.97 4.27Q239.97 6.84 242.02 8.18 244.07 9.52 247.41 9.52L247.41 9.52Q252.66 9.52 254.32 6.74L254.32 6.74Q254.86 5.88 254.86 4.81L254.86 4.81Q254.86 1.27 248.81 0.71L248.81 0.71Q246.9 0.51 245.24 0.37 243.58 0.22 242.38-0.12ZM286.64-11.25L286.64-11.25 269.7-11.25Q269.7-7.06 271.69-4.76 273.68-2.47 276.61-2.47L276.61-2.47Q280.54-2.47 282.25-5.71L282.25-5.71 285.89-5.74Q285.33-3.13 282.68-1.32 280.03 0.49 275.54 0.49 271.04 0.49 267.77-2.29L267.77-2.29Q263.87-5.64 263.87-11.72 263.87-17.8 266.98-21.52 270.09-25.24 275.9-25.24L275.9-25.24Q283.54-25.24 285.79-19.09L285.79-19.09Q286.69-16.63 286.69-14.43 286.69-12.23 286.64-11.25ZM281.01-14.92L281.01-14.92Q281.01-22.39 275.93-22.39L275.93-22.39Q273.07-22.39 271.47-20.17 269.87-17.94 269.73-14.01L269.73-14.01 280.98-14.01Q281.01-14.48 281.01-14.92Z" opacity="1" transform="matrix(1,0,0,1,0,0)" fill="#ffffff" class="wordmark-text-0" data-fill-palette-color="primary" id="text-0"></path></svg></g></svg></g><g transform="matrix(1,0,0,1,0,89.46233852041236)"><svg viewBox="0 0 395.52 44.72841896907216" height="44.72841896907216" width="395.52"><g transform="matrix(1,0,0,1,0,0)"><svg width="395.52" viewBox="0.3 -34.15 406.76 46" height="44.72841896907216" data-palette-color="#fbfbf8"><path d="M8.9-15.95L8.9-15.95 8.45-15.9Q8.45-12.25 8.5-8.58 8.55-4.9 8.75-1.25L8.75-1.25 4.7 0.2 4.3-0.05 4.3-29.75Q4.3-30.15 4.25-30.55 4.2-30.95 4.05-31.3L4.05-31.3Q3.85-31.75 2.98-32.13 2.1-32.5 1.28-32.73 0.45-32.95 0.3-32.95L0.3-32.95 0.4-33.8 0.8-34.15 8.7-34.15 9.05-33.8Q8.8-33 8.63-31.18 8.45-29.35 8.38-26.15 8.3-22.95 8.3-17.9L8.3-17.9 8.7-17.85 23.05-34.15 27.55-34.15 27.5-33.7 12.95-19Q12.85-18.9 12.7-18.73 12.55-18.55 12.55-18.45L12.55-18.45Q12.55-18.25 12.8-18L12.8-18Q14.8-16 17.2-13.6 19.6-11.2 21.98-8.88 24.35-6.55 26.33-4.65 28.3-2.75 29.45-1.75L29.45-1.75 29.4-1.2 25.15 0.35Q21.2-3.85 17.07-7.85 12.95-11.85 8.9-15.95ZM65.79-15.95L65.79-15.95 51.69-9.85Q51.84-8.3 52.52-6.65 53.19-5 54.57-3.9 55.94-2.8 58.14-2.8L58.14-2.8Q60.19-2.8 62.17-3.85 64.14-4.9 65.84-6.2L65.84-6.2 66.39-6.1 67.04-5.2Q65.49-3.75 63.67-2.43 61.84-1.1 59.82-0.25 57.79 0.6 55.64 0.6L55.64 0.6Q53.14 0.6 51.52-0.45 49.89-1.5 48.99-3.23 48.09-4.95 47.72-7.08 47.34-9.2 47.34-11.3L47.34-11.3Q47.34-13.5 47.89-15.6 48.44-17.7 49.89-19.4L49.89-19.4Q51.74-21.55 54.32-22.73 56.89-23.9 59.74-23.9L59.74-23.9Q62.99-23.9 64.92-21.9 66.84-19.9 66.84-17L66.84-17Q66.84-16.55 66.52-16.35 66.19-16.15 65.79-15.95ZM53.79-19.8L53.79-19.8Q52.34-18.25 51.92-16.55 51.49-14.85 51.49-13L51.49-13Q51.49-12.8 51.52-12.58 51.54-12.35 51.59-12.1L51.59-12.1 51.79-11.9 61.89-15.9Q62.14-16 62.34-16.3 62.54-16.6 62.54-17.2L62.54-17.2Q62.54-18.25 61.99-19.35 61.44-20.45 60.42-21.18 59.39-21.9 57.99-21.9L57.99-21.9Q56.74-21.9 55.67-21.35 54.59-20.8 53.79-19.8ZM104.18-15.95L104.18-15.95 90.08-9.85Q90.23-8.3 90.91-6.65 91.58-5 92.96-3.9 94.33-2.8 96.53-2.8L96.53-2.8Q98.58-2.8 100.56-3.85 102.53-4.9 104.23-6.2L104.23-6.2 104.78-6.1 105.43-5.2Q103.88-3.75 102.06-2.43 100.23-1.1 98.21-0.25 96.18 0.6 94.03 0.6L94.03 0.6Q91.53 0.6 89.91-0.45 88.28-1.5 87.38-3.23 86.48-4.95 86.11-7.08 85.73-9.2 85.73-11.3L85.73-11.3Q85.73-13.5 86.28-15.6 86.83-17.7 88.28-19.4L88.28-19.4Q90.13-21.55 92.71-22.73 95.28-23.9 98.13-23.9L98.13-23.9Q101.38-23.9 103.31-21.9 105.23-19.9 105.23-17L105.23-17Q105.23-16.55 104.91-16.35 104.58-16.15 104.18-15.95ZM92.18-19.8L92.18-19.8Q90.73-18.25 90.31-16.55 89.88-14.85 89.88-13L89.88-13Q89.88-12.8 89.91-12.58 89.93-12.35 89.98-12.1L89.98-12.1 90.18-11.9 100.28-15.9Q100.53-16 100.73-16.3 100.93-16.6 100.93-17.2L100.93-17.2Q100.93-18.25 100.38-19.35 99.83-20.45 98.81-21.18 97.78-21.9 96.38-21.9L96.38-21.9Q95.13-21.9 94.06-21.35 92.98-20.8 92.18-19.8ZM131.88 10.3L131.88 10.3 127.83 11.85 127.33 11.3Q127.43 10.45 127.48 8.83 127.53 7.2 127.55 5.25 127.58 3.3 127.6 1.33 127.63-0.65 127.63-2.25 127.63-3.85 127.63-4.7L127.63-4.7 127.63-15.75Q127.63-16.9 127.45-18 127.28-19.1 126.85-19.85 126.43-20.6 125.68-20.6L125.68-20.6Q124.88-20.6 123.9-20.15 122.93-19.7 122.03-19.15L122.03-19.15 121.33-20.1Q122.83-21.3 124.65-22.4 126.48-23.5 128.13-23.5L128.13-23.5Q129.83-23.5 130.53-22.45 131.23-21.4 131.38-19.75L131.38-19.75 131.78-19.55Q133.83-21.15 136.1-22.2 138.38-23.25 140.98-23.25L140.98-23.25Q143.53-23.25 145.03-21.95 146.53-20.65 147.18-18.73 147.83-16.8 147.83-14.9L147.83-14.9Q147.83-12.15 146.9-9.4 145.98-6.65 144.25-4.4 142.53-2.15 140.13-0.8 137.73 0.55 134.83 0.55L134.83 0.55Q133.38 0.55 131.88 0.15L131.88 0.15 131.38 0.55Q131.43 1.7 131.48 3.5 131.53 5.3 131.63 7.15 131.73 9 131.88 10.3ZM131.48-3.3L131.48-3.3Q132.38-2.5 133.5-1.98 134.63-1.45 135.88-1.45L135.88-1.45Q138.13-1.45 139.63-2.4 141.13-3.35 142-4.93 142.88-6.5 143.25-8.33 143.63-10.15 143.63-11.95L143.63-11.95Q143.63-14.15 143-16 142.38-17.85 141.23-19 140.08-20.15 138.48-20.15L138.48-20.15Q136.58-20.15 134.93-19.4 133.28-18.65 131.53-17.25L131.53-17.25Q131.53-17.15 131.5-16.5 131.48-15.85 131.45-15.03 131.43-14.2 131.4-13.5 131.38-12.8 131.38-12.6L131.38-12.6Q131.38-10.55 131.4-8.4 131.43-6.25 131.45-4.8 131.48-3.35 131.48-3.3ZM198.01-31.25L198.01-31.25Q197.96-30 197.09-29.23 196.21-28.45 195.01-28.45L195.01-28.45Q193.81-28.45 192.96-29.3 192.11-30.15 192.11-31.35L192.11-31.35Q192.11-32.65 193.16-33.4 194.21-34.15 195.31-34.15L195.31-34.15Q196.61-34.15 197.31-33.27 198.01-32.4 198.01-31.25ZM197.31-19.6L197.31-19.6 196.91-9.1Q196.91-6.35 197.36-4.8 197.81-3.25 199.11-3.25L199.11-3.25Q200.56-3.25 201.64-3.93 202.71-4.6 203.71-5.5L203.71-5.5 204.36-5 204.36-4.45Q203.51-3.35 202.39-2.23 201.26-1.1 199.99-0.35 198.71 0.4 197.31 0.4L197.31 0.4Q196.26 0.4 195.34 0.03 194.41-0.35 193.86-1.55 193.31-2.75 193.31-5.2L193.31-5.2 193.61-16.25Q193.61-18.2 193.24-19.35 192.86-20.5 191.86-20.5L191.86-20.5Q191.06-20.5 189.91-19.98 188.76-19.45 187.86-18.9L187.86-18.9 187.21-19.8Q188.91-21.15 190.84-22.35 192.76-23.55 194.21-23.55L194.21-23.55Q195.91-23.55 196.61-22.4 197.31-21.25 197.31-19.6ZM225.2-29.1L225.2-29.1 229.4-30.55 229.75-30.3Q229.55-28.15 229.4-26.18 229.25-24.2 229.2-22L229.2-22 229.5-21.75 235.9-21.75 236.15-21.55 235.75-20.25 235.45-20 229.5-20 229.2-19.7 229.2-10.25Q229.2-8.5 229.43-6.75 229.65-5 230.43-3.88 231.2-2.75 232.75-2.75L232.75-2.75Q233.7-2.75 234.95-3.43 236.2-4.1 237.3-4.8L237.3-4.8 237.9-4.7 238.25-3.95Q236.55-2.35 234.4-0.95 232.25 0.45 230.05 0.45L230.05 0.45Q229.2 0.45 228.18 0.13 227.15-0.2 226.45-1.1L226.45-1.1Q225.95-1.8 225.7-2.6 225.45-3.4 225.38-5.1 225.3-6.8 225.3-10.15L225.3-10.15 225.3-19.65 225-20 219.4-20 219.15-20.25 219.5-21.45 219.8-21.75 225-21.75 225.3-22.05Q225.3-23.95 225.3-26.05 225.3-28.15 225.2-29.1ZM293.39-19.15L293.39-19.15 290.64-17.3 290.04-17.65Q289.94-19.3 289.21-20.43 288.49-21.55 286.79-21.55L286.79-21.55Q285.04-21.55 283.86-20.4 282.69-19.25 282.69-17.5L282.69-17.5Q282.69-16 284.06-14.93 285.44-13.85 288.19-12.7L288.19-12.7Q291.09-11.45 292.51-10.05 293.94-8.65 293.94-6.9L293.94-6.9Q293.94-4.35 292.51-2.63 291.09-0.9 288.91-0.03 286.74 0.85 284.54 0.85L284.54 0.85Q282.29 0.85 280.36-0.05 278.44-0.95 277.19-3.3L277.19-3.3 279.64-6.85 280.34-6.8Q280.49-4.5 282.09-2.78 283.69-1.05 286.04-1.05L286.04-1.05Q287.64-1.05 288.96-2.18 290.29-3.3 290.29-4.85L290.29-4.85Q290.29-6.15 289.54-7.05 288.79-7.95 287.66-8.6 286.54-9.25 285.34-9.75L285.34-9.75Q283.79-10.4 282.34-11.25 280.89-12.1 279.99-13.3 279.09-14.5 279.09-16.15L279.09-16.15Q279.09-18.4 280.39-20 281.69-21.6 283.69-22.45 285.69-23.3 287.74-23.3L287.74-23.3Q289.04-23.3 290.31-22.9 291.59-22.5 292.46-21.6 293.34-20.7 293.39-19.15ZM329.78-21.55L329.78-21.55 332.43-23.1 332.68-22.85Q332.38-17.4 332.38-11.95L332.38-11.95Q332.38-10.8 332.3-9.2 332.23-7.6 332.33-6.1 332.43-4.6 332.88-3.6 333.33-2.6 334.33-2.6L334.33-2.6Q334.88-2.6 335.83-2.9 336.78-3.2 337.58-3.5L337.58-3.5 337.93-2.3Q336.93-1.7 335.78-1.03 334.63-0.35 333.53 0.13 332.43 0.6 331.63 0.6L331.63 0.6Q330.23 0.6 329.63-0.25 329.03-1.1 328.78-2.35L328.78-2.35 328.03-2.55Q326.18-1.35 324.13-0.38 322.08 0.6 319.88 0.6L319.88 0.6Q317.78 0.6 316.38-0.3 314.98-1.2 314.13-2.65 313.28-4.1 312.9-5.83 312.53-7.55 312.53-9.25L312.53-9.25Q312.53-11.9 313.2-14.4 313.88-16.9 315.3-18.93 316.73-20.95 318.98-22.13 321.23-23.3 324.43-23.3L324.43-23.3Q325.63-23.3 327.1-22.85 328.58-22.4 329.78-21.55ZM328.68-4.95L328.68-4.95 328.68-16.45Q328.68-17.45 328.58-18.35 328.48-19.25 327.88-19.9L327.88-19.9Q327.23-20.6 326.33-21.08 325.43-21.55 324.48-21.55L324.48-21.55Q321.73-21.55 319.73-19.65L319.73-19.65Q318.88-18.85 318-16.7 317.13-14.55 317.03-10.75L317.03-10.75Q316.98-9.2 317.28-7.63 317.58-6.05 318.43-4.75L318.43-4.75Q319.23-3.5 320.6-3.1 321.98-2.7 323.38-2.7L323.38-2.7Q324.83-2.7 326.2-3.4 327.58-4.1 328.68-4.95ZM353.37-21.4L353.72-21.7 358.97-21.7 359.27-22Q359.27-23.3 359.42-25.03 359.57-26.75 360.17-28.1L360.17-28.1Q361.32-30.75 363.4-32.1 365.47-33.45 367.82-33.45L367.82-33.45Q369.87-33.45 370.92-32.6 371.97-31.75 372.47-30.75L372.47-30.75 369.57-28.05 368.97-28.25Q368.87-28.8 368.65-29.55 368.42-30.3 367.85-30.88 367.27-31.45 366.07-31.45L366.07-31.45Q365.02-31.45 364.35-30.15 363.67-28.85 363.37-26.7 363.07-24.55 363.07-22L363.07-22 363.27-21.7 369.47-21.7 369.72-21.35 369.37-20.25 369.02-19.95 363.27-19.95 362.97-19.65 362.97-14.1Q362.97-10.6 363.1-7.13 363.22-3.65 363.47-0.6L363.47-0.6 359.52 0.6 358.67 0.05Q358.92-3.65 359.12-7.2 359.32-10.75 359.32-14.15L359.32-14.15 359.32-19.55 359.02-19.95 353.42-19.95 353.17-20.3 353.37-21.4ZM405.81-15.95L405.81-15.95 391.71-9.85Q391.86-8.3 392.54-6.65 393.21-5 394.59-3.9 395.96-2.8 398.16-2.8L398.16-2.8Q400.21-2.8 402.19-3.85 404.16-4.9 405.86-6.2L405.86-6.2 406.41-6.1 407.06-5.2Q405.51-3.75 403.69-2.43 401.86-1.1 399.84-0.25 397.81 0.6 395.66 0.6L395.66 0.6Q393.16 0.6 391.54-0.45 389.91-1.5 389.01-3.23 388.11-4.95 387.74-7.08 387.36-9.2 387.36-11.3L387.36-11.3Q387.36-13.5 387.91-15.6 388.46-17.7 389.91-19.4L389.91-19.4Q391.76-21.55 394.34-22.73 396.91-23.9 399.76-23.9L399.76-23.9Q403.01-23.9 404.94-21.9 406.86-19.9 406.86-17L406.86-17Q406.86-16.55 406.54-16.35 406.21-16.15 405.81-15.95ZM393.81-19.8L393.81-19.8Q392.36-18.25 391.94-16.55 391.51-14.85 391.51-13L391.51-13Q391.51-12.8 391.54-12.58 391.56-12.35 391.61-12.1L391.61-12.1 391.81-11.9 401.91-15.9Q402.16-16 402.36-16.3 402.56-16.6 402.56-17.2L402.56-17.2Q402.56-18.25 402.01-19.35 401.46-20.45 400.44-21.18 399.41-21.9 398.01-21.9L398.01-21.9Q396.76-21.9 395.69-21.35 394.61-20.8 393.81-19.8Z" opacity="1" transform="matrix(1,0,0,1,0,0)" fill="#ffffff" class="slogan-text-1" data-fill-palette-color="secondary" id="text-1"></path></svg></g></svg></g></svg></g></svg></g><g transform="matrix(1,0,0,1,101.54768374948021,0)"><svg viewBox="0 0 194.4022325010395 185.4516268504676" height="185.4516268504676" width="194.4022325010395"><g><svg xmlns="http://www.w3.org/2000/svg" xmlns:xlink="http://www.w3.org/1999/xlink" version="1.1" x="0" y="0" viewBox="4.802521623224504 9.3 90.0974783767755 85.94923898319172" style="enable-background:new 0 0 100 100;" xml:space="preserve" height="185.4516268504676" width="194.4022325010395" class="icon-icon-0" data-fill-palette-color="accent" id="icon-0"><rect x="43.4" y="60.2" width="2" height="7.3" fill="#ffffff" data-fill-palette-color="accent"></rect><rect x="43.4" y="38.2" width="2" height="7.3" fill="#ffffff" data-fill-palette-color="accent"></rect><rect x="62.5" y="61.2" width="2" height="6.8" fill="#ffffff" data-fill-palette-color="accent"></rect><rect x="78.2" y="61.2" width="2" height="6.8" fill="#ffffff" data-fill-palette-color="accent"></rect><path d="M71.8 50.3L64.7 55.2V27.5H70V9.3H64.7V18.6H60V9.3H42.8V17.8H36.8V9.3H27.6V27.5H33.6V77.1C31.1 78 26.7 79.5 21.5 80.5 13.1 82 1.1 90.9 5.9 92.8S38.2 97.2 45.8 92.8C48.4 91.3 50.6 89.5 52.7 87.9L61.1 90.2 84.7 86.5 94.9 83.7V62zM30 25.1V12H34.5V19.9H45.3V12H51.1V25.1zM36 82.1V27.5H52.8V82.2C44.5 82.1 36 82.1 36 82.1M84.5 82.1H74.6V74S74.2 71.7 71.4 71.7 68.2 74 68.2 74V82.1H58.3V61.5L71.8 52.2 84.7 61.1z" fill="#ffffff" data-fill-palette-color="accent"></path></svg></g></svg></g><g></g></svg></g><defs></defs></svg><rect width="261.7429027119749" height="247.2" fill="none" stroke="none" visibility="hidden"></rect></g></svg></g></svg>